<?xml version="1.0" encoding="UTF-8" standalone="no"?>
<!-- Created with Inkscape (http://www.inkscape.org/) -->

<svg
   xmlns:dc="http://purl.org/dc/elements/1.1/"
   xmlns:cc="http://creativecommons.org/ns#"
   xmlns:rdf="http://www.w3.org/1999/02/22-rdf-syntax-ns#"
   xmlns:svg="http://www.w3.org/2000/svg"
   xmlns="http://www.w3.org/2000/svg"
   xmlns:xlink="http://www.w3.org/1999/xlink"
   version="1.1"
   width="64"
   height="64"
   id="svg2160">
  <defs
     id="defs2162">
    <linearGradient
       id="linearGradient3419">
      <stop
         id="stop3421"
         style="stop-color:#eeeeee;stop-opacity:1"
         offset="0" />
      <stop
         id="stop3427"
         style="stop-color:#e5e5e5;stop-opacity:1"
         offset="0.6785714" />
      <stop
         id="stop3423"
         style="stop-color:#c7c7c7;stop-opacity:1"
         offset="1" />
    </linearGradient>
    <linearGradient
       id="linearGradient3402">
      <stop
         id="stop3404"
         style="stop-color:#ffffff;stop-opacity:1"
         offset="0" />
      <stop
         id="stop3406"
         style="stop-color:#eeeeee;stop-opacity:0"
         offset="1" />
    </linearGradient>
    <linearGradient
       id="linearGradient3283">
      <stop
         id="stop3285"
         style="stop-color:#ffffff;stop-opacity:1"
         offset="0" />
      <stop
         id="stop3287"
         style="stop-color:#e54747;stop-opacity:1"
         offset="0.8035714" />
      <stop
         id="stop3289"
         style="stop-color:#ec003c;stop-opacity:0"
         offset="1" />
    </linearGradient>
    <linearGradient
       id="linearGradient3242">
      <stop
         id="stop3244"
         style="stop-color:#eeeeec;stop-opacity:1"
         offset="0" />
      <stop
         id="stop3250"
         style="stop-color:#d42121;stop-opacity:1"
         offset="0.5" />
      <stop
         id="stop3246"
         style="stop-color:#570000;stop-opacity:1"
         offset="1" />
    </linearGradient>
    <linearGradient
       id="linearGradient3226">
      <stop
         id="stop3228"
         style="stop-color:#ffffff;stop-opacity:1"
         offset="0" />
      <stop
         id="stop3234"
         style="stop-color:#2955ff;stop-opacity:1"
         offset="0.8214286" />
      <stop
         id="stop3230"
         style="stop-color:#00e6ec;stop-opacity:0"
         offset="1" />
    </linearGradient>
    <linearGradient
       id="linearGradient3200">
      <stop
         id="stop3202"
         style="stop-color:#cbcbcb;stop-opacity:1"
         offset="0" />
      <stop
         id="stop3204"
         style="stop-color:#435b67;stop-opacity:1"
         offset="0.5" />
      <stop
         id="stop3206"
         style="stop-color:#002e5b;stop-opacity:0"
         offset="1" />
    </linearGradient>
    <linearGradient
       id="linearGradient3186">
      <stop
         id="stop3188"
         style="stop-color:#ffffff;stop-opacity:1"
         offset="0" />
      <stop
         id="stop3190"
         style="stop-color:#ffdf06;stop-opacity:1"
         offset="1" />
    </linearGradient>
    <linearGradient
       id="linearGradient3471">
      <stop
         id="stop3473"
         style="stop-color:#ffffff;stop-opacity:1"
         offset="0" />
      <stop
         id="stop3479"
         style="stop-color:#2a77d3;stop-opacity:1"
         offset="0.5" />
      <stop
         id="stop3475"
         style="stop-color:#002a5b;stop-opacity:1"
         offset="1" />
    </linearGradient>
    <linearGradient
       id="linearGradient3364">
      <stop
         id="stop3366"
         style="stop-color:#2e3436;stop-opacity:1"
         offset="0" />
      <stop
         id="stop3368"
         style="stop-color:#2e3436;stop-opacity:0"
         offset="1" />
    </linearGradient>
    <filter
       color-interpolation-filters="sRGB"
       id="filter3276">
      <feGaussianBlur
         id="feGaussianBlur3278"
         stdDeviation="0.90543467" />
    </filter>
    <linearGradient
       x1="24.000463"
       y1="23.375"
       x2="16.242304"
       y2="14.406847"
       id="linearGradient3380"
       xlink:href="#linearGradient3364"
       gradientUnits="userSpaceOnUse" />
    <linearGradient
       x1="6.8806405"
       y1="-1.7964493"
       x2="15.251305"
       y2="23.205675"
       id="linearGradient3417"
       xlink:href="#linearGradient3402"
       gradientUnits="userSpaceOnUse"
       gradientTransform="matrix(0.9126649,0,0,0.9122384,1.9862604,1.985097)" />
    <radialGradient
       cx="2.8824735"
       cy="3.2758915"
       r="1.3451543"
       fx="2.0177314"
       fy="2.6033144"
       id="radialGradient3476"
       xlink:href="#linearGradient3402"
       gradientUnits="userSpaceOnUse" />
    <linearGradient
       x1="1.5927705"
       y1="28.716167"
       x2="3.5927706"
       y2="28.716167"
       id="linearGradient3480"
       xlink:href="#linearGradient3402"
       gradientUnits="userSpaceOnUse"
       gradientTransform="matrix(1,0,0,1.0704105,0,-0.1528275)" />
    <linearGradient
       x1="1.5927705"
       y1="28.716167"
       x2="3.5927706"
       y2="28.716167"
       id="linearGradient3484"
       xlink:href="#linearGradient3402"
       gradientUnits="userSpaceOnUse"
       gradientTransform="matrix(0,1,-1.0704105,0,61.594128,-0.1709019)" />
    <linearGradient
       x1="1.5927705"
       y1="28.716167"
       x2="3.5927706"
       y2="28.716167"
       id="linearGradient3499"
       xlink:href="#linearGradient3402"
       gradientUnits="userSpaceOnUse"
       gradientTransform="matrix(1,0,0,1.0704105,0,-0.1528275)" />
    <radialGradient
       cx="2.8824735"
       cy="3.2758915"
       r="1.3451543"
       fx="2.0177314"
       fy="2.6033144"
       id="radialGradient3501"
       xlink:href="#linearGradient3402"
       gradientUnits="userSpaceOnUse" />
    <linearGradient
       x1="1.5927705"
       y1="28.716167"
       x2="3.5927706"
       y2="28.716167"
       id="linearGradient3503"
       xlink:href="#linearGradient3402"
       gradientUnits="userSpaceOnUse"
       gradientTransform="matrix(0,1,-1.0704105,0,61.594128,-0.1709019)" />
    <filter
       color-interpolation-filters="sRGB"
       id="filter4217">
      <feGaussianBlur
         id="feGaussianBlur4219"
         stdDeviation="0.22406408" />
    </filter>
    <radialGradient
       cx="22.577009"
       cy="35.283001"
       r="12.908705"
       fx="22.577009"
       fy="35.283001"
       id="radialGradient3261"
       xlink:href="#linearGradient3471"
       gradientUnits="userSpaceOnUse"
       gradientTransform="matrix(2.2203777,0.2833982,-0.1681154,1.0544544,-22.012516,-9.1365687)" />
    <radialGradient
       cx="43.69899"
       cy="42.88105"
       r="15.10806"
       fx="43.69899"
       fy="42.88105"
       id="radialGradient3289"
       xlink:href="#linearGradient3226"
       gradientUnits="userSpaceOnUse"
       gradientTransform="matrix(0.6416247,0.767789,-0.701201,0.5859785,47.728871,-13.797929)" />
    <radialGradient
       cx="43.69899"
       cy="42.88105"
       r="15.10806"
       fx="43.69899"
       fy="42.88105"
       id="radialGradient3292"
       xlink:href="#linearGradient3226"
       gradientUnits="userSpaceOnUse"
       gradientTransform="matrix(0.6416247,0.767789,-0.701201,0.5859785,51.728871,-9.797929)" />
    <radialGradient
       cx="22.420382"
       cy="23.915073"
       r="12.908705"
       fx="22.420382"
       fy="23.915073"
       id="radialGradient3298"
       xlink:href="#linearGradient3283"
       gradientUnits="userSpaceOnUse"
       gradientTransform="matrix(0.7094235,0.7308034,-0.815092,0.7914794,21.508733,-16.576754)" />
    <radialGradient
       cx="43.69899"
       cy="42.88105"
       r="15.10806"
       fx="43.69899"
       fy="42.88105"
       id="radialGradient3301"
       xlink:href="#linearGradient3226"
       gradientUnits="userSpaceOnUse"
       gradientTransform="matrix(0.6416247,0.767789,-0.701201,0.5859785,45.728871,-15.797929)" />
    <radialGradient
       cx="22.420382"
       cy="23.915073"
       r="12.908705"
       fx="22.420382"
       fy="23.915073"
       id="radialGradient3304"
       xlink:href="#linearGradient3283"
       gradientUnits="userSpaceOnUse"
       gradientTransform="matrix(0.6881094,0.7087425,-0.7906031,0.7675867,17.674901,-19.430512)" />
    <radialGradient
       cx="34.377918"
       cy="32.06794"
       r="4.4187899"
       fx="34.377918"
       fy="32.06794"
       id="radialGradient3316"
       xlink:href="#linearGradient3402"
       gradientUnits="userSpaceOnUse"
       gradientTransform="matrix(0.7176564,0,0,7.2424021,9.7063837,-200.18098)" />
    <radialGradient
       cx="35.091961"
       cy="24.107239"
       r="12.908705"
       fx="35.091961"
       fy="24.107239"
       id="radialGradient3337"
       xlink:href="#linearGradient3242"
       gradientUnits="userSpaceOnUse"
       gradientTransform="matrix(1.0922725,1.248063,-1.1271947,0.9864919,19.702913,-36.378834)" />
    <filter
       color-interpolation-filters="sRGB"
       id="filter3364">
      <feGaussianBlur
         id="feGaussianBlur3366"
         stdDeviation="0.20899911" />
    </filter>
  </defs>
  <metadata
     id="metadata2165">
    <rdf:RDF>
      <cc:Work
         rdf:about="">
        <dc:format>image/svg+xml</dc:format>
        <dc:type
           rdf:resource="http://purl.org/dc/dcmitype/StillImage" />
        <dc:title></dc:title>
      </cc:Work>
    </rdf:RDF>
  </metadata>
  <g
     id="layer1">
    <path
       d="M 23.930293,4.1441817 C 16.693684,-3.0806392 1.6590838,3.4446899 0.64265795,14.320472 -1.4846225,25.069735 11.283744,32.639526 20.601715,26.181345 28.650292,21.281916 30.406819,9.6248222 23.930293,4.1441817 z"
       id="path3616"
       style="opacity:0.2;fill:url(#radialGradient3304);fill-opacity:1;stroke:none" />
    <path
       d="m 55.456391,53.647896 c 7.947985,-7.960953 0.769507,-24.50043 -11.19488,-25.618595 -11.825202,-2.340209 -20.152687,11.706198 -13.048078,21.956845 5.389834,8.854194 18.213736,10.786539 24.242958,3.66175 z"
       id="path3611"
       style="fill:url(#radialGradient3301);fill-opacity:1;stroke:none" />
    <path
       d="M 27.957887,7.7317455 C 20.497122,0.28203838 4.9968285,7.0104808 3.9489189,18.224793 1.7557461,29.308647 14.919611,37.114062 24.526206,30.454857 32.824087,25.402925 34.635022,13.382981 27.957887,7.7317455 z"
       id="path3578"
       style="fill:url(#radialGradient3298);fill-opacity:1;stroke:none" />
    <path
       d="m 61.456391,59.647896 c 7.947985,-7.960953 0.769507,-24.50043 -11.19488,-25.618595 -11.825202,-2.340209 -20.152687,11.706198 -13.048078,21.956845 5.389834,8.854194 18.213736,10.786539 24.242958,3.66175 z"
       id="path3557"
       style="opacity:0.2;fill:url(#radialGradient3292);fill-opacity:1;stroke:none" />
    <path
       d="m 57.456391,55.647896 c 7.947985,-7.960953 0.769507,-24.50043 -11.19488,-25.618595 -11.825202,-2.340209 -20.152687,11.706198 -13.048078,21.956845 5.389834,8.854194 18.213736,10.786539 24.242958,3.66175 z"
       id="path3541"
       style="opacity:0.55263157;fill:url(#radialGradient3289);fill-opacity:1;stroke:none" />
    <path
       d="m 31.177414,31.215472 c -5.605439,5.605439 -14.225244,6.084318 -19.240636,1.068927 -5.0153924,-5.015392 -5.5445406,-14.643225 0.0609,-20.248664 5.605439,-5.6054393 15.23327,-5.0762902 20.248663,-0.0609 5.015392,5.015392 4.536513,13.635196 -1.068926,19.240635 z"
       id="path3521"
       style="fill:url(#radialGradient3337);fill-opacity:1;stroke:none" />
    <path
       d="m 35.329086,23.915073 a 12.908705,12.908705 0 1 1 -25.8174092,0 12.908705,12.908705 0 1 1 25.8174092,0 z"
       transform="matrix(-0.6747937,0.6747937,-0.7541813,-0.7541813,76.881092,45.845595)"
       id="path3523"
       style="fill:url(#radialGradient3261);fill-opacity:1;stroke:none" />
    <path
       d="m 44.225186,18.160165 c -0.339746,-0.0024 -0.69245,0.0043 -1.03125,0.03125 -0.24047,0.03033 -0.482387,0.05543 -0.71875,0.09375 l -3.0625,3.0625 c 2.438864,-1.163728 5.336296,-1.823095 7.84375,-2.90625 -1.004526,-0.153664 -2.012012,-0.274116 -3.03125,-0.28125 z m -10.03125,3.40625 c -5.654778,3.604122 -10.118767,9.363564 -14.5625,14.5 l 14.5625,-14.5 z m 3.5,1.5 -20.84375,20.84375 c -0.108834,0.294828 -0.224428,0.596865 -0.3125,0.875 1.465011,-2.850296 6.923123,-4.794165 7.09375,-0.21875 1.430024,-4.876672 7.230837,-7.034643 11.28125,-3.9375 2.723639,1.874932 1.576686,0.403453 0.6875,-1.71875 -1.732223,-5.720518 5.835121,-10.275655 10.40625,-10.78125 -2.391307,-1.807952 -8.681176,-1.513027 -8.3125,-5.0625 z"
       id="path3161"
       style="opacity:0.9;fill:#ffff99;fill-rule:evenodd;stroke:none;filter:url(#filter3276)" />
    <path
       d="m 62.65625,17.5 c -0.570993,0.17069 -1.146847,0.324287 -1.71875,0.5 -0.758051,0.233431 -1.526062,0.507 -2.28125,0.75 0.742681,-0.238679 1.473349,-0.457942 2.21875,-0.6875 0.589944,-0.181273 1.186001,-0.355318 1.78125,-0.53125 l 0,-0.03125 z m -8.25,2.8125 C 53.83427,20.537717 53.252958,20.75468 52.6875,21 l -0.0625,0.0625 c 0.592193,-0.259786 1.183036,-0.503635 1.78125,-0.75 z M 43.1875,25.46875 C 42.873512,25.638564 42.554882,25.810185 42.25,26 c -0.65931,0.391009 -1.294405,0.801611 -1.9375,1.21875 -1.063349,0.713326 -2.012276,1.523537 -2.84375,2.53125 -0.189429,0.209277 -0.39407,0.398618 -0.5625,0.625 -0.145476,0.01371 -0.291871,0.01846 -0.4375,0.03125 l -3.5625,3.5625 c 0.417979,0.163366 0.848574,0.33401 1.25,0.53125 l 2.65625,-2.625 c -0.05276,-0.05134 -0.103748,-0.10521 -0.15625,-0.15625 0.08483,0.01292 0.165408,0.04829 0.25,0.0625 l 0.28125,-0.3125 c -0.03041,-0.01269 -0.06328,-0.0186 -0.09375,-0.03125 0.07822,-0.03038 0.164414,-0.05765 0.25,-0.09375 L 37.375,31.3125 39,29.6875 c 0.117109,-0.26998 0.171137,-0.562713 0.15625,-0.84375 -0.0028,-0.05256 0.05002,-0.07274 0.0625,-0.125 0.01429,-0.05468 0.035,-0.108729 0.0625,-0.15625 0.734624,-0.595155 1.501972,-1.153088 2.28125,-1.6875 0.216493,-0.147139 0.438156,-0.295198 0.65625,-0.4375 L 43.1875,25.46875 z M 30.5,29.125 c -1.13157,-0.157926 -3.146045,3.491072 -1.6875,2.8125 0.285847,-0.132989 0.601762,-0.176798 0.90625,-0.25 0.174149,-0.04036 0.354257,-0.06037 0.53125,-0.09375 l 1.71875,-1.6875 C 31.769251,29.85905 31.569609,29.811431 31.375,29.75 31.220513,29.673849 31.029242,29.633217 30.9375,29.46875 30.825549,29.268053 30.661653,29.147561 30.5,29.125 z M 43.84375,29.84375 43.5625,30.125 c 1.135429,-0.0819 2.265195,-0.140871 3.40625,-0.0625 1.536392,0.112917 3.077233,0.362867 4.59375,0.625 1.548563,0.281907 3.088232,0.596969 4.625,0.9375 1.475188,0.335924 2.917942,0.750136 4.375,1.15625 0.70398,0.183511 1.396603,0.374241 2.09375,0.59375 l 0,-0.09375 c -0.682384,-0.181727 -1.354294,-0.360538 -2.03125,-0.5625 -1.457154,-0.406169 -2.930981,-0.820201 -4.40625,-1.15625 -1.536837,-0.340643 -3.076362,-0.624246 -4.625,-0.90625 -1.516694,-0.262235 -3.025933,-0.511872 -4.5625,-0.625 -1.061433,-0.07305 -2.119764,-0.173223 -3.1875,-0.1875 z m -3,3 -0.0625,0.0625 c 0.870935,0.369046 1.717784,0.7943 2.5625,1.21875 1.761065,0.901673 3.477085,1.892632 5.15625,2.9375 1.775207,1.095059 3.390306,2.398349 5,3.71875 1.620369,1.313315 3.182689,2.713167 4.6875,4.15625 1.41753,1.376906 2.802331,2.77818 4.1875,4.1875 0.09828,0.09936 0.183568,0.212333 0.28125,0.3125 l 0,-0.125 C 62.58359,49.238398 62.510521,49.16757 62.4375,49.09375 61.052284,47.68438 59.636326,46.283206 58.21875,44.90625 56.713815,43.46304 55.182999,42.063434 53.5625,40.75 51.952591,39.429399 50.306668,38.095271 48.53125,37 c -1.679311,-1.045015 -3.363789,-2.035672 -5.125,-2.9375 -0.84487,-0.424577 -1.691643,-0.849766 -2.5625,-1.21875 z m -1.625,1.625 -0.875,0.875 c 0.686137,0.507006 1.348647,1.038117 2,1.59375 0.992453,0.830251 1.972348,1.666031 2.875,2.59375 1.034356,1.195901 2.035838,2.434753 3,3.6875 0.935935,1.218588 1.819308,2.473095 2.71875,3.71875 0.823019,1.152306 1.662112,2.294643 2.40625,3.5 0.685525,1.097899 1.350376,2.224392 2,3.34375 0.399188,0.680098 0.776354,1.3715 1.15625,2.0625 0.185231,0.336917 0.719453,-0.153052 0.5,-0.46875 -0.441811,-0.635577 -0.903106,-1.269866 -1.34375,-1.90625 -0.731353,-1.043695 -1.468612,-2.094724 -2.21875,-3.125 C 50.598184,49.207586 49.835384,48.01424 49,46.875 48.100512,45.629293 47.185983,44.406138 46.25,43.1875 45.285737,41.934641 44.315715,40.696005 43.28125,39.5 c -0.811702,-1.018259 -1.57953,-2.062963 -2.375,-3.09375 -0.537349,-0.668879 -1.113735,-1.301021 -1.6875,-1.9375 z M 32,34.875 30.78125,36.09375 c 0.0024,0.0098 -0.0024,0.02149 0,0.03125 0.114876,0.460048 0.256609,0.899494 0.40625,1.34375 l 0.875,-0.875 C 32.023046,36.090617 32.002404,35.574498 32,35.0625 c 5.84e-4,-0.06175 -4.92e-4,-0.125171 0,-0.1875 z m 5.59375,1.21875 -0.375,0.375 c 1.06757,0.781662 2.061928,1.630318 2.9375,2.625 0.35242,0.415171 0.694291,0.821725 1.03125,1.25 -0.340371,-0.425983 -0.647011,-0.865424 -1,-1.28125 -0.868616,-0.986743 -1.708152,-1.997383 -2.59375,-2.96875 z m 3.59375,4.25 c 1.010876,1.284825 1.962947,2.636008 2.90625,3.96875 1.347801,1.965828 2.653278,3.961147 3.9375,5.96875 1.181292,1.841403 2.340803,3.707126 3.5,5.5625 0.72935,1.17092 0.37269,0.586831 1.09375,1.75 0.02025,0.03266 0.0515,-0.02983 0.03125,-0.0625 -0.721072,-1.163185 -0.364393,-0.57907 -1.09375,-1.75 -1.159212,-1.855394 -2.318696,-3.689825 -3.5,-5.53125 -1.284281,-2.007693 -2.55835,-4.034112 -3.90625,-6 -0.942958,-1.332217 -1.949653,-2.630824 -2.96875,-3.90625 z m -11.40625,-3.25 -2.34375,2.3125 c -0.0092,0.02129 -0.02209,0.04118 -0.03125,0.0625 -0.184884,0.430554 -0.350829,0.868784 -0.5,1.3125 -0.14213,0.422326 -0.247131,0.8463 -0.34375,1.28125 l 1.25,-1.25 c 0.150071,-0.37598 0.319631,-0.761034 0.5,-1.125 0.308276,-0.591191 0.601383,-1.161205 0.96875,-1.71875 0.174329,-0.28241 0.339156,-0.580148 0.5,-0.875 z m 0.84375,0.9375 c -0.77707,0.402133 -1.706315,1.13571 -1.78125,1.75 l 1.78125,-1.75 z m 2.28125,2.75 -0.3125,0.3125 c 0.09782,0.217332 0.183014,0.437736 0.28125,0.65625 0.614997,1.238763 1.192649,2.482106 1.8125,3.71875 0.719315,1.439205 1.557492,2.830913 2.46875,4.15625 1.05126,1.492218 2.187831,2.896574 3.375,4.28125 1.172984,1.355491 2.401248,2.6905 3.625,4 1.138517,1.219534 2.289352,2.413744 3.46875,3.59375 0.340807,0.338004 0.682397,0.668253 1.03125,1 l 0.125,0 C 48.414633,62.148178 48.049253,61.796278 47.6875,61.4375 46.508156,60.257544 45.357213,59.06323 44.21875,57.84375 42.995065,56.534319 41.766663,55.230428 40.59375,53.875 39.406747,52.490496 38.238578,51.085804 37.1875,49.59375 36.276485,48.268616 35.469139,46.876452 34.75,45.4375 34.113497,44.167507 33.50801,42.873465 33.125,41.5 33.048782,41.261269 32.979575,41.021395 32.90625,40.78125 z M 24.875,42 23.78125,43.09375 c -0.164745,0.292739 -0.338723,0.580104 -0.5,0.875 -0.485792,0.87347 -0.907534,1.775012 -1.3125,2.6875 L 22.53125,46.125 C 22.994552,45.204896 23.461938,44.282315 24,43.40625 24.283615,42.933759 24.582905,42.469087 24.875,42 z m 6.4375,0.375 -1.0625,1.0625 c 0.205709,0.587724 0.424986,1.169218 0.65625,1.75 0.452114,1.070678 0.942897,2.104662 1.4375,3.15625 0.758803,1.513342 1.517835,3.035186 2.3125,4.53125 0.799123,1.509701 1.633009,2.984693 2.53125,4.4375 0.882037,1.399496 1.837351,2.766893 2.78125,4.125 0.246621,0.355294 0.499389,0.708489 0.75,1.0625 l 0.0625,0 C 40.522122,62.134169 40.254878,61.773442 40,61.40625 39.056177,60.048234 38.131933,58.680672 37.25,57.28125 36.351877,55.828541 35.5178,54.353328 34.71875,52.84375 33.920037,51.340012 33.042065,49.836575 32.5,48.21875 32.137369,47.009512 31.823563,45.77967 31.625,44.53125 31.505589,43.81427 31.3905,43.099012 31.3125,42.375 z m -5.25,5.25 -0.25,0.25 c -0.01934,0.619903 -0.01936,1.252304 -0.03125,1.875 -0.0071,1.847159 0.124874,3.691951 0.28125,5.53125 0.150021,1.781856 0.451263,3.556181 0.78125,5.3125 0.127144,0.638667 0.268249,1.272036 0.40625,1.90625 4.75e-4,0.0022 0.03077,-0.0022 0.03125,0 C 27.134448,61.854972 27.004266,61.212065 26.875,60.5625 26.545175,58.806345 26.274893,57.031678 26.125,55.25 25.968731,53.410876 25.836437,51.565726 25.84375,49.71875 25.857444,49.010223 25.954363,48.316529 26.0625,47.625 z M 19.75,54.3125 c -0.0044,0.02199 -0.02688,0.04051 -0.03125,0.0625 -0.257577,1.350805 -0.562958,2.685206 -0.84375,4.03125 -0.257471,1.229603 -0.508636,2.454642 -0.75,3.6875 -0.02624,0.133739 -0.06443,0.269633 -0.09375,0.40625 l 0.34375,0 c 0.04668,-0.0763 0.114117,-0.137545 0.125,-0.21875 0.02457,-0.183324 0.03793,-0.379179 0.0625,-0.5625 0.167144,-1.173588 0.341298,-2.32986 0.53125,-3.5 0.207149,-1.296115 0.392206,-2.620041 0.65625,-3.90625 z"
       id="path3481"
       style="fill:#ffffff;fill-opacity:1;stroke:none;filter:url(#filter4217)" />
    <path
       d="m 38.046708,32.06794 a 3.6687899,31.252653 0 1 1 -7.33758,0 3.6687899,31.252653 0 1 1 7.33758,0 z"
       transform="matrix(0.7071068,0.7071068,-0.7071068,0.7071068,31.113981,-17.226356)"
       id="path3308"
       style="fill:url(#radialGradient3316);fill-opacity:1;stroke:none" />
    <path
       d="m 37.20767,6.625 c 0.59602,1.0116588 1.126352,2.0527458 1.472608,3.1875 0.33039,1.112223 0.561257,2.254094 0.721278,3.40625 0.131117,1.150855 0.198628,2.309665 0.150266,3.46875 -0.06228,1.110568 -0.18452,2.232098 -0.450799,3.3125 -0.280673,0.931358 -0.600907,1.86007 -1.051863,2.71875 -0.412472,0.762913 -0.880665,1.484238 -1.382449,2.1875 -0.496306,0.688284 -0.991243,1.380445 -1.532715,2.03125 -1.258288,1.505528 -0.900428,1.006733 -0.84149,0.96875 -0.375421,0.349767 -0.77089,0.682848 -1.172077,1 -0.06935,-0.473066 -0.125648,-0.93569 -0.210372,-1.40625 -0.168878,-0.925434 -0.420931,-1.851598 -0.691225,-2.75 -0.26198,-1.106632 -0.806585,-2.067649 -1.262236,-3.09375 -0.530431,-1.218019 -1.195742,-2.360705 -1.8633,-3.5 -0.733963,-1.277499 -1.634127,-2.424228 -2.584579,-3.53125 -1.007056,-1.141144 -2.044871,-2.246195 -3.095483,-3.34375 -6.100739,-3.7209081 -4.541049,-4.7474542 -0.06011,0.03125 1.050528,1.097468 2.118565,2.202692 3.125536,3.34375 0.95009,1.106626 1.858454,2.280323 2.584579,3.5625 0.644145,1.179844 1.192456,2.38624 1.652928,3.65625 0.386922,1.138208 0.626276,2.321649 0.871543,3.5 0.175768,0.983147 0.328882,1.969593 0.390692,2.96875 0.02766,0.445417 0.02864,0.8972 0.03005,1.34375 -0.140704,0.08006 -0.300289,0.15802 -0.450799,0.21875 -0.09718,0.01133 -0.202055,0.104 -0.300532,0.03125 -0.951982,-0.703259 -2.019106,1.165989 -2.284046,2.1875 -0.26489,0.01605 -0.515709,0.02792 -0.781384,0.03125 -0.747498,-0.0166 -1.488886,-0.119084 -2.22394,-0.25 C 25.000508,31.752154 24.02756,31.512697 23.082648,31.25 21.959673,30.928498 20.910517,30.435668 19.866952,29.90625 18.734227,29.328732 17.643377,28.659226 16.591149,27.9375 15.426544,27.110716 14.408147,26.087598 13.43556,25.03125 c -1.212379,-1.292148 -2.07683,-2.840789 -2.855058,-4.4375 -0.134514,-0.291933 -0.256177,-0.583068 -0.390692,-0.875 -0.01597,-0.03466 -0.07608,-0.0034 -0.06011,0.03125 0.134547,0.29197 0.286197,0.58303 0.420745,0.875 0.778614,1.597238 1.612221,3.144877 2.825004,4.4375 0.97466,1.058584 2.023343,2.055048 3.125537,2.96875 0.96832,0.810751 1.969336,1.569414 3.06543,2.1875 0.988783,0.566233 1.992809,1.106225 3.005323,1.625 0.800407,0.41054 1.624631,0.807386 2.464366,1.125 0.664347,0.216768 1.324172,0.446167 2.013567,0.5625 0.540275,0.08354 1.074114,0.19147 1.622874,0.15625 0.419736,-0.04433 0.814651,-0.123482 1.20213,-0.3125 0.253357,-0.110023 0.51903,-0.226819 0.781384,-0.3125 0.266674,-0.266349 0.695909,-0.570108 1.11197,-0.875 -0.04469,0.217319 -0.07772,0.44519 -0.150266,0.65625 -0.136871,0.396912 -0.276337,0.789614 -0.480852,1.15625 -0.01485,0.02393 -0.0458,0.03795 -0.06011,0.0625 -0.14574,0.163625 -0.274554,0.336838 -0.420745,0.5 -0.379214,0.400833 -0.521828,0.566254 -0.540958,0.59375 -0.04316,0.04116 0.184552,-0.179782 -0.120213,0.125 -0.691248,0.684247 -1.434155,1.329604 -2.163833,1.96875 -0.751216,0.661496 -1.49765,1.29071 -2.284046,1.90625 -0.906369,0.709572 -1.892356,1.337972 -2.885111,1.90625 -1.05114,0.608138 -2.144814,1.08076 -3.275803,1.5 -1.193511,0.442023 -2.44497,0.692023 -3.696548,0.875 -1.318398,0.180326 -2.650566,0.123362 -3.967027,-0.03125 C 10.318306,43.266982 9.0151116,42.75559 7.7554979,42.125 6.3689875,41.403396 5.1322939,40.42995 3.9687901,39.375 2.6781633,38.016578 2.001202,37.808025 3.9387369,39.4375 c 1.1639164,1.055368 2.3997704,2.027954 3.7867078,2.75 1.254456,0.628235 2.5437943,1.143146 3.9369743,1.3125 1.290224,0.162729 2.578455,0.240974 3.876867,0.125 1.215226,-0.119058 2.415039,-0.349302 3.576335,-0.75 1.098401,-0.376146 2.185396,-0.825648 3.215697,-1.375 0.917823,-0.486837 1.828637,-0.979361 2.674738,-1.59375 0.767335,-0.564285 1.508483,-1.178244 2.223939,-1.8125 0.675816,-0.593838 1.376752,-1.176522 2.04362,-1.78125 0.492662,-0.465938 0.969493,-0.950404 1.442556,-1.4375 0.478151,0.227524 3.48356,-1.194232 2.674738,-2.46875 -0.03778,-0.05953 -0.04587,-0.149717 -0.06011,-0.21875 -2.95e-4,-0.02091 1.65e-4,-0.04159 0,-0.0625 0.05145,-0.03609 0.118929,-0.08606 0.180319,-0.09375 1.77841,-0.222754 3.123341,-3.97907 1.893354,-2.625 -0.141613,0.155901 -0.302769,0.287945 -0.450798,0.4375 -0.555478,0.527944 -1.09783,1.095113 -1.622875,1.65625 6.04e-4,-0.04183 -4.26e-4,-0.08318 0,-0.125 1.39e-4,-0.535258 -0.04078,-1.092817 -0.09016,-1.625 -0.0167,-0.147714 -0.04071,-0.290242 -0.06011,-0.4375 0.100101,-0.09637 0.201473,-0.183709 0.300532,-0.28125 0.926032,-0.905511 1.811442,-1.878506 2.644685,-2.875 0.552072,-0.663252 1.068373,-1.320424 1.562768,-2.03125 0.494844,-0.697799 0.936241,-1.450548 1.322343,-2.21875 0.389042,-0.80486 0.688431,-1.638794 0.811437,-2.53125 0.16194,-1.041809 0.243013,-2.071679 0.240426,-3.125 0.03324,-1.14288 -0.08301,-2.276874 -0.240426,-3.40625 -0.128237,-1.162974 -0.39211,-2.321066 -0.721278,-3.4375 C 38.74514,8.2717582 38.208256,7.2340332 37.568308,6.25 34.136614,2.7816493 34.593099,4.2267418 37.20767,6.625 z m -5.229264,23.78125 c -0.0078,0.165855 0.01493,0.334467 0,0.5 -0.006,0.05333 -0.02404,0.102875 -0.03005,0.15625 -0.0035,0.03122 0.0036,0.06253 0,0.09375 -0.767473,1.102324 -1.6522,2.674779 -1.442555,1.59375 0.143798,-0.741495 0.844178,-1.194615 1.442555,-1.6875 -0.20461,0.150971 -0.411839,0.277766 -0.631118,0.40625 -0.410925,0.240999 -0.873634,0.391439 -1.322342,0.53125 0.04029,-0.03267 0.08014,-0.06084 0.120213,-0.09375 0.515272,-0.412268 1.044685,-0.810292 1.562768,-1.21875 0.1065,-0.08398 0.196206,-0.194569 0.300532,-0.28125 z"
       id="path3351"
       style="fill:#ffffff;fill-opacity:1;stroke:none;filter:url(#filter3364)" />
  </g>
</svg>
